<?xml version="1.0" encoding="UTF-8"?>
<!DOCTYPE svg PUBLIC "-//W3C//DTD SVG 1.1//EN" "http://www.w3.org/Graphics/SVG/1.1/DTD/svg11.dtd">
<!-- Creator: CorelDRAW X7 -->
<svg xmlns="http://www.w3.org/2000/svg" xml:space="preserve" width="511px" height="108px" version="1.1" style="shape-rendering:geometricPrecision; text-rendering:geometricPrecision; image-rendering:optimizeQuality; fill-rule:evenodd; clip-rule:evenodd"
viewBox="0 0 511 108"
 xmlns:xlink="http://www.w3.org/1999/xlink">
 <defs>
  <style type="text/css">
   <![CDATA[
    .fil1 {fill:#003687}
    .fil0 {fill:#4D4D4D}
    .fil2 {fill:#6EBB2C}
    .fil3 {fill:black;fill-rule:nonzero}
   ]]>
  </style>
 </defs>
 <g id="图层_x0020_1">
  <metadata id="CorelCorpID_0Corel-Layer"/>
  <g id="_2768902159472">
   <path class="fil0" d="M84 43c-17,12 -4,20 -18,28 -8,5 -12,1 -17,6 -4,3 -8,8 -11,11 -19,-6 -33,-40 -7,-63l19 -17c2,-2 3,-2 4,-6 -47,3 -68,56 -37,89 4,4 15,14 24,15 5,0 15,-12 21,-18 36,-36 26,-21 22,-45l0 0z"/>
   <path class="fil0" d="M22 49l5 18c6,-6 8,-4 9,-14 2,-20 20,-14 26,-20 3,-4 7,-8 12,-11 13,5 25,28 16,48 -5,14 -27,26 -34,38 28,-1 52,-24 52,-53 0,-26 -20,-48 -42,-51 -3,4 -7,7 -11,11 -9,10 -29,29 -33,34l0 0z"/>
   <path class="fil0" d="M52 45c-14,5 -7,25 7,20 12,-4 7,-25 -7,-20z"/>
  </g>
  <g id="_2768902159024">
   <path class="fil1" d="M81 41c-17,12 -3,20 -17,28 -8,5 -12,1 -17,6 -4,4 -8,8 -11,12 -19,-6 -33,-41 -7,-64l18 -17c3,-2 3,-2 5,-5 -47,2 -68,55 -37,88 3,4 15,14 24,15 5,1 14,-11 20,-17 37,-37 26,-22 22,-46l0 0z"/>
   <path class="fil2" d="M20 47l5 18c6,-6 8,-4 9,-14 2,-20 20,-14 26,-20 3,-4 6,-8 11,-11 14,5 26,28 17,48 -5,14 -27,26 -34,38 28,-1 52,-24 52,-53 0,-26 -20,-48 -43,-51 -3,4 -7,7 -10,11 -9,10 -29,29 -33,34l0 0z"/>
   <path class="fil2" d="M49 43c-13,5 -6,25 8,20 12,-4 6,-25 -8,-20z"/>
  </g>
  <polygon class="fil3" points="118,106 118,27 128,27 128,97 168,97 168,106 "/>
  <path class="fil3" d="M213 88l10 1c-1,6 -4,10 -8,14 -5,3 -10,5 -17,5 -8,0 -15,-3 -20,-8 -5,-5 -7,-13 -7,-22 0,-10 2,-17 7,-23 5,-5 12,-8 20,-8 7,0 14,3 18,8 5,5 8,13 8,22 0,1 0,2 0,3l-43 0c0,6 2,11 5,14 3,4 7,6 12,6 4,0 7,-1 9,-3 3,-2 5,-5 6,-9zm-32 -16l32 0c0,-5 -1,-9 -3,-11 -3,-4 -7,-6 -12,-6 -5,0 -9,2 -12,5 -3,3 -4,7 -5,12z"/>
  <path class="fil3" d="M227 106l0 -79 27 0c6,0 11,0 14,1 5,1 9,3 12,5 4,4 7,9 10,14 2,6 3,12 3,19 0,6 -1,11 -2,16 -2,5 -4,9 -6,12 -2,3 -5,5 -7,7 -3,2 -6,3 -10,4 -3,1 -8,1 -12,1l-29 0zm10 -9l17 0c6,0 10,-1 13,-2 3,-1 5,-2 7,-4 2,-2 4,-6 6,-10 1,-4 2,-9 2,-15 0,-8 -2,-15 -4,-19 -3,-5 -6,-8 -10,-9 -3,-1 -8,-2 -14,-2l-17 0 0 61z"/>
  <path class="fil3" d="M297 38l0 -11 10 0 0 11 -10 0zm0 68l0 -57 10 0 0 57 -10 0z"/>
  <path class="fil3" d="M312 106l0 -57 8 0 0 8c5,-7 11,-10 19,-10 3,0 6,1 9,2 3,1 5,3 7,5 1,2 2,5 3,7 0,2 0,5 0,10l0 35 -9 0 0 -35c0,-4 -1,-7 -1,-9 -1,-2 -3,-3 -4,-4 -2,-2 -5,-2 -7,-2 -4,0 -8,1 -11,4 -3,2 -5,7 -5,15l0 31 -9 0z"/>
  <path class="fil3" d="M364 106l0 -79 30 0c5,0 10,0 12,0 4,1 7,2 10,4 3,2 5,5 7,8 1,3 2,7 2,11 0,6 -2,12 -7,17 -4,5 -12,7 -23,7l-20 0 0 32 -11 0zm11 -41l20 0c7,0 12,-2 15,-4 3,-3 4,-6 4,-11 0,-3 -1,-6 -2,-9 -2,-2 -4,-3 -7,-4 -2,-1 -5,-1 -10,-1l-20 0 0 29z"/>
  <path class="fil3" d="M428 106l0 -57 9 0 0 8c2,-4 4,-6 6,-8 2,-1 4,-2 6,-2 4,0 7,1 10,3l-3 10c-2,-2 -5,-3 -7,-3 -2,0 -4,1 -6,2 -2,2 -3,3 -4,6 -1,3 -1,7 -1,11l0 30 -10 0z"/>
  <path class="fil3" d="M457 77c0,-10 3,-18 9,-23 5,-5 11,-7 18,-7 8,0 14,3 19,8 5,5 8,12 8,22 0,7 -1,13 -4,17 -2,4 -5,8 -9,10 -5,2 -9,4 -14,4 -8,0 -15,-3 -20,-8 -5,-5 -7,-13 -7,-23zm10 0c0,8 1,13 5,17 3,4 7,6 12,6 5,0 9,-2 12,-6 3,-4 5,-9 5,-17 0,-7 -2,-12 -5,-16 -3,-4 -7,-6 -12,-6 -5,0 -9,2 -12,6 -4,4 -5,9 -5,16z"/>
 </g>
</svg>
